<svg xmlns="http://www.w3.org/2000/svg" fill="none" viewBox="0 0 1080 1920"><g clip-path="url(#clip0)"><path fill="url(#paint0_linear)" d="M0 0h1080v1920H0z"/><path fill="#fff" fill-rule="evenodd" d="M540 1870a750 750 0 100-1500 750 750 0 000 1500zm0-100a650 650 0 100-1300 650 650 0 000 1300z" clip-rule="evenodd" opacity=".1"/><path fill="#fff" fill-rule="evenodd" d="M540 1670a550 550 0 100-1100 550 550 0 000 1100zm0-100a450 450 0 100-900 450 450 0 000 900z" clip-rule="evenodd" opacity=".1"/><path fill="#fff" fill-rule="evenodd" d="M540 1460a340 340 0 100-680 340 340 0 000 680zm0-97.1a242.9 242.9 0 100-485.8 242.9 242.9 0 000 485.8z" clip-rule="evenodd" opacity=".1"/><rect width="500" height="500" x="290" y="870" fill="#fff" rx="250"/><path fill="#fff" d="M-49 209.2a50 50 0 0155-49.7l1148 114a50 50 0 0145 49.8v298.5a50 50 0 01-54.9 49.8L-3.9 558.4A50 50 0 01-49 508.7V209.2z"/><path fill="#004BA1" d="M289.8 322.5V375h-14.6v-13.2H267l-8.6 13.2h-15.6l10.6-15.4a17.7 17.7 0 01-8-6.7c-1.9-2.9-2.8-6.4-2.8-10.4a18.3 18.3 0 0111-17.6 30 30 0 0112.5-2.4h23.6zm-23.3 11.7c-5.9 0-8.8 2.7-8.8 8 0 2.7.7 4.7 2.2 6.1 1.5 1.3 3.6 2 6.4 2h8.9v-16.1h-8.7zm80.7 3.8c4 0 7.4.7 10.3 2.3 2.9 1.5 5 3.6 6.6 6.5a20 20 0 012.3 9.8c0 3.9-1 7.3-3 10.2-2 3-4.7 5.2-8.2 6.8a27.5 27.5 0 01-11.7 2.4c-7.1 0-12.8-2.2-17-6.6-4.3-4.5-6.4-11.1-6.4-20 0-16.8 7.4-26.5 22.2-29.3l19.7-3.8 2 12-17.2 3.2a20 20 0 00-9.6 3.9c-2 1.8-3.2 4.3-3.6 7.7 3.7-3.5 8.2-5.2 13.6-5.2zm-3.6 27.3c2.6 0 4.6-.9 6-2.5a8.8 8.8 0 002.3-6.2 8 8 0 00-2.3-6 8.1 8.1 0 00-6-2.3c-2.5 0-4.6.8-6.1 2.3a8.3 8.3 0 00-2.3 6.1c0 2.5.8 4.6 2.3 6.2a8 8 0 006.1 2.4zm55-31.6a19.6 19.6 0 0117.2 10c1.8 3.1 2.7 6.8 2.7 11s-.9 7.9-2.7 11a18.8 18.8 0 01-17.2 10c-4.8 0-8.6-1.4-11.4-4.3v18.2H373v-55.3h13.6v4.1c2.6-3.1 6.6-4.7 12-4.7zm-3 30.7a8 8 0 006.1-2.6c1.6-1.8 2.4-4.1 2.4-7.1s-.8-5.4-2.4-7a8 8 0 00-6.1-2.7 8 8 0 00-6.2 2.6 9.9 9.9 0 00-2.4 7c0 3 .8 5.4 2.4 7.2a8 8 0 006.2 2.6zm49.8 11.3c-4.4 0-8.3-1-11.8-2.7a20.6 20.6 0 01-8.2-7.5c-2-3.2-3-6.9-3-10.9s1-7.6 3-10.8c2-3.2 4.7-5.7 8.1-7.4 3.5-1.8 7.5-2.7 11.9-2.7s8.3.9 11.8 2.7a19.6 19.6 0 0111.1 18.2 20.1 20.1 0 01-11.1 18.4 25.5 25.5 0 01-11.8 2.7zm0-11.3a8 8 0 006.1-2.6c1.6-1.8 2.4-4.2 2.4-7.2s-.8-5.4-2.4-7a8 8 0 00-6.1-2.6 8 8 0 00-6.2 2.6 9.9 9.9 0 00-2.4 7c0 3 .8 5.4 2.4 7.2a8 8 0 006.2 2.6zm50 11.3c-4.5 0-8.5-1-12-2.7a20.5 20.5 0 01-8.4-7.5c-2-3.2-2.9-6.9-2.9-10.9s1-7.7 3-10.8a20 20 0 018.2-7.4c3.6-1.8 7.6-2.7 12.1-2.7 4.6 0 8.6 1 12 3 3.3 2 5.7 4.7 7 8.2l-11 5.6c-1.8-3.7-4.5-5.5-8-5.5-2.6 0-4.7.9-6.4 2.6a9.7 9.7 0 00-2.5 7c0 3 .8 5.4 2.5 7.2a8.6 8.6 0 006.3 2.6c3.6 0 6.3-1.9 8.1-5.5l11 5.6a16.6 16.6 0 01-7 8.3c-3.4 1.9-7.4 2.9-12 2.9zm41.6-42c6.8 0 12 1.5 15.5 4.6 3.5 3 5.3 7.8 5.3 14.1V375h-13.3v-5.3c-2 4-6 6-12 6-3.1 0-5.9-.6-8.2-1.7-2.3-1-4-2.6-5.2-4.4-1.2-1.9-1.7-4-1.7-6.5 0-3.8 1.4-6.8 4.4-8.9 3-2.1 7.5-3.2 13.6-3.2h8.1c-.2-4.3-3-6.4-8.6-6.4a19 19 0 00-11 3.5l-4.8-9.7a26 26 0 018.2-3.4c3.2-.9 6.5-1.3 9.7-1.3zm-.5 33c1.6 0 3-.4 4.3-1.2 1.3-.8 2.2-2 2.7-3.6v-3.5h-6.1c-4.2 0-6.2 1.4-6.2 4.2 0 1.2.4 2.2 1.4 3 1 .7 2.2 1 3.9 1zm69.8-33c4.2 0 8 .9 11.4 2.7 3.4 1.7 6 4.2 8 7.4 1.8 3.1 2.8 6.8 2.8 10.8 0 4-1 7.7-2.9 10.9a19.8 19.8 0 01-8 7.5 23.7 23.7 0 01-11.3 2.7c-5.4 0-10-1.4-14-4.2a19.4 19.4 0 01-7.5-11.1h-4.3V375h-14.1v-40.6h14.1v14h4.4c1.3-4.5 4-8 7.7-10.7a23 23 0 0113.7-4zm0 30.7c2.3 0 4.3-1 5.8-2.7 1.6-1.7 2.3-4.1 2.3-7.1s-.7-5.4-2.3-7a7.6 7.6 0 00-5.8-2.6c-2.4 0-4.3.9-5.9 2.6a10 10 0 00-2.3 7c0 3 .8 5.4 2.3 7.1a7.5 7.5 0 005.9 2.7zm87-18.7h-13V375H666v-29.3H653v-11.3h40.3v11.3zm45.1 9l-.2 3.6h-29.6a8.5 8.5 0 003.5 4.8 12 12 0 006.5 1.7c2 0 3.6-.3 5-.8 1.5-.6 3-1.5 4.4-2.7l7.5 7.8c-4 4.4-9.7 6.6-17.3 6.6-4.8 0-9-1-12.6-2.7a20.4 20.4 0 01-8.4-7.5c-2-3.2-2.9-6.9-2.9-10.9s1-7.6 2.9-10.7c2-3.2 4.6-5.7 8-7.5 3.4-1.8 7.2-2.7 11.5-2.7 4 0 7.7.8 11 2.5s5.9 4.1 7.8 7.3c2 3.1 3 6.9 3 11.3zm-21.7-10.9c-2.2 0-4 .6-5.5 1.9a8.6 8.6 0 00-2.8 5h16.7a8 8 0 00-8.3-7zm54.4-5.9c4 0 7.3.8 10.2 2.4 3 1.5 5.1 3.6 6.6 6.5a20 20 0 012.4 9.8c0 3.9-1 7.3-3 10.2-2 3-4.7 5.2-8.2 6.8a27.5 27.5 0 01-11.7 2.4c-7.2 0-12.9-2.2-17.1-6.6-4.3-4.5-6.4-11.1-6.4-20 0-16.8 7.4-26.5 22.2-29.3l19.7-3.8 2 12-17.1 3.2a20 20 0 00-9.6 3.9c-2 1.8-3.2 4.3-3.6 7.7 3.6-3.5 8.2-5.2 13.6-5.2zm-3.6 27.4c2.5 0 4.5-.9 6-2.5a8.8 8.8 0 002.2-6.2 8 8 0 00-2.2-6 8.1 8.1 0 00-6-2.3c-2.6 0-4.6.8-6.2 2.3a8.3 8.3 0 00-2.2 6.1c0 2.5.7 4.6 2.3 6.2a8 8 0 006 2.4zm70.5-10.6l-.2 3.6h-29.5a8.5 8.5 0 003.4 4.8 12 12 0 006.5 1.7c2 0 3.6-.3 5-.8 1.5-.6 3-1.5 4.4-2.7l7.5 7.8c-4 4.4-9.7 6.6-17.3 6.6-4.8 0-9-1-12.5-2.7a20.4 20.4 0 01-8.4-7.5c-2-3.2-3-6.9-3-10.9s1-7.6 2.9-10.7c2-3.2 4.6-5.7 8-7.5 3.4-1.8 7.2-2.7 11.5-2.7 4 0 7.7.8 11 2.5s5.9 4.1 7.8 7.3c2 3.1 3 6.9 3 11.3zm-21.6-10.9c-2.3 0-4.1.6-5.6 1.9a8.6 8.6 0 00-2.8 5h16.7a8 8 0 00-8.3-7zM308.9 463.7c4.7 1.6 7 4.8 7 9.6 0 3.6-1.4 6.5-4.3 8.6-2.8 2-7 3.1-12.6 3.1h-22.8v-40.6H298c5.3 0 9.4.9 12.3 2.7 3 1.9 4.4 4.5 4.4 7.8 0 2-.5 3.7-1.5 5.2s-2.4 2.7-4.3 3.6zm-20-3h7.8c3.3 0 5-1.2 5-3.7 0-2.3-1.7-3.5-5-3.5H289v7.2zm8.9 15c3.4 0 5.1-1.2 5.1-3.7s-1.6-3.7-5-3.7h-9v7.5h8.9zm48.6-18.8c5.3.1 9.3 1.3 12 3.7 2.7 2.3 4.1 5.6 4.1 10a13 13 0 01-4.7 10.6 20 20 0 01-13.2 3.8H323v-40.6h14.2V457h9zm19.5-12.5h14.2V485H366v-40.6zm-22.8 30.9c3.6 0 5.4-1.7 5.4-5 0-1.5-.4-2.7-1.3-3.4-.9-.8-2.3-1.2-4-1.3h-5.9v9.6h5.8zm75.2-11.4a11 11 0 015.4 3.5 8 8 0 012 5.4c0 2.7-1 5-3 7-1.8 2-4.3 3.5-7.6 4.5a45.8 45.8 0 01-29.3-2l3.7-9.6c4.3 1.8 9.1 2.7 14.4 2.7 2.2 0 4-.3 5.3-1 1.3-.6 2-1.5 2-2.8 0-1-.4-1.9-1.2-2.4a7 7 0 00-3.7-.7h-8.7v-8.3h7.5c3.3 0 5-1 5-3.1 0-2.2-2.2-3.2-6.7-3.2-3.8 0-8.1.9-12.9 2.7l-3.4-9.4a45.3 45.3 0 0117.5-3.7c5.8 0 10.5 1 14.3 3.1 3.7 2 5.6 4.8 5.6 8.5 0 1.8-.6 3.5-1.7 5a11.8 11.8 0 01-4.5 3.8zm34.3 21.8c-4.3 0-8.2-1-11.7-2.7a20.6 20.6 0 01-8.3-7.5c-2-3.2-3-6.9-3-10.9s1-7.6 3-10.8c2-3.2 4.7-5.7 8.2-7.4 3.5-1.8 7.4-2.7 11.8-2.7s8.4.9 11.9 2.7a19.6 19.6 0 0111 18.2c0 4-.9 7.7-2.8 10.9-2 3.2-4.7 5.7-8.2 7.5a25.5 25.5 0 01-11.9 2.7zm0-11.3a8 8 0 006.2-2.6c1.6-1.8 2.4-4.2 2.4-7.2s-.8-5.4-2.4-7a8 8 0 00-6.2-2.6 8 8 0 00-6.1 2.6 9.9 9.9 0 00-2.4 7c0 3 .8 5.4 2.4 7.2a8 8 0 006.1 2.6zm62.4-10.7c4.7 1.6 7 4.8 7 9.6 0 3.6-1.4 6.5-4.3 8.6-2.8 2-7 3.1-12.6 3.1h-22.8v-40.6H504c5.3 0 9.4.9 12.3 2.7 3 1.9 4.4 4.5 4.4 7.8 0 2-.5 3.7-1.5 5.2s-2.4 2.7-4.3 3.6zm-20-3h7.8c3.3 0 5-1.2 5-3.7 0-2.3-1.7-3.5-5-3.5H495v7.2zm8.9 15c3.4 0 5.2-1.2 5.2-3.7s-1.7-3.7-5-3.7h-9v7.5h8.8zm80-12c4.6 1.6 6.9 4.8 6.9 9.6 0 3.6-1.4 6.5-4.3 8.6-2.8 2-7 3.1-12.6 3.1H551v-40.6H573c5.3 0 9.4.9 12.3 2.7 3 1.9 4.4 4.5 4.4 7.8 0 2-.5 3.7-1.5 5.2s-2.4 2.7-4.3 3.6zm-20.1-3h7.8c3.3 0 5-1.2 5-3.7 0-2.3-1.7-3.5-5-3.5h-7.8v7.2zm8.9 15c3.4 0 5.1-1.2 5.1-3.7s-1.6-3.7-5-3.7h-9v7.5h8.9zm47.1-31.3H634v21.3l17-21.3h13.1V485H650v-21.4L633 485h-13.2v-40.6zm88 11.3h-19.9V485h-14.2v-40.6h34v11.3zm31.1-12a19.6 19.6 0 0117.3 10c1.8 3.1 2.7 6.8 2.7 11s-1 7.9-2.7 11a18.8 18.8 0 01-17.3 10c-4.7 0-8.5-1.4-11.3-4.3v18.2h-14.2v-55.3h13.5v4.1c2.7-3.1 6.7-4.7 12-4.7zm-3 30.7a8 8 0 006.2-2.6c1.6-1.8 2.4-4.1 2.4-7.1s-.8-5.4-2.4-7a8 8 0 00-6.2-2.7 8 8 0 00-6.1 2.6 9.9 9.9 0 00-2.4 7c0 3 .8 5.4 2.4 7.2a8 8 0 006.1 2.6zm71-9.6l-.2 3.5H777a8.5 8.5 0 003.5 4.8 12 12 0 006.5 1.7c2 0 3.6-.3 5-.8 1.5-.6 3-1.5 4.4-2.7l7.5 7.8c-4 4.4-9.8 6.6-17.4 6.6-4.7 0-8.9-1-12.5-2.7a20.4 20.4 0 01-8.4-7.5c-2-3.2-2.9-6.9-2.9-10.9s1-7.6 2.8-10.7c2-3.2 4.7-5.7 8-7.5 3.5-1.8 7.3-2.7 11.5-2.7 4.1 0 7.8.8 11 2.5 3.4 1.7 6 4.1 7.9 7.3 2 3.1 2.9 6.9 2.9 11.3zm-21.7-11c-2.2 0-4 .6-5.5 1.9a8.6 8.6 0 00-2.8 5h16.6a8 8 0 00-8.3-7z"/><rect width="740" height="200" x="170" y="1590" fill="#fff" rx="50"/><path fill="#fff" d="M288 1505v-27.8l-13.5 22.6h-6.6l-13.5-22v27.2h-13.6v-52.5H253l18.4 30.3 18-30.3h12.3l.1 52.5h-13.7zm44.2.7c-4.4 0-8.3-1-11.8-2.7a20.6 20.6 0 01-8.3-7.5c-1.9-3.2-2.9-6.8-2.9-10.9a20.2 20.2 0 0111.1-18.2c3.5-1.8 7.5-2.7 11.9-2.7s8.3.9 11.8 2.7a19.6 19.6 0 0111.1 18.2A20.1 20.1 0 01344 1503a25.4 25.4 0 01-11.8 2.7zm0-11.4a8 8 0 006.1-2.5c1.6-1.8 2.4-4.1 2.4-7.2 0-3-.8-5.3-2.4-7a8 8 0 00-6.1-2.6 8 8 0 00-6.2 2.5 9.9 9.9 0 00-2.4 7.1c0 3 .8 5.5 2.4 7.2a8 8 0 006.2 2.5zm29.6-30H376v21.4l17-21.4h13.1v40.7H392v-21.4L375 1505h-13.2v-40.7zm21.2-3.8c-4.8 0-8.3-1-10.6-3-2.3-2.1-3.4-5.2-3.5-9.4h9.3c0 1.7.4 3 1.2 4 .7.8 1.9 1.2 3.6 1.2 1.6 0 2.8-.4 3.6-1.3.9-1 1.3-2.2 1.3-4h9.4c0 4.3-1.2 7.4-3.5 9.5-2.3 2-6 3-10.8 3zm80.1 3.2a19.6 19.6 0 0117.3 10c1.8 3.1 2.7 6.8 2.7 11s-1 7.9-2.7 11a18.8 18.8 0 01-17.3 10c-4.7 0-8.5-1.5-11.3-4.3v18.1h-14.3v-55.2h13.6v4.1c2.7-3.2 6.7-4.7 12-4.7zm-3 30.6a8 8 0 006.2-2.5c1.6-1.8 2.4-4.1 2.4-7.1s-.8-5.4-2.4-7a8 8 0 00-6.2-2.7 8 8 0 00-6.1 2.6 9.9 9.9 0 00-2.4 7c0 3 .8 5.5 2.4 7.2a8 8 0 006.1 2.5zm71-9.5l-.2 3.5h-29.6a8.5 8.5 0 003.5 4.9 12 12 0 006.5 1.6c2 0 3.6-.3 5-.8a15 15 0 004.4-2.7l7.5 7.8c-4 4.4-9.8 6.6-17.4 6.6-4.7 0-8.9-1-12.5-2.7a20.4 20.4 0 01-8.4-7.5c-2-3.2-3-6.8-3-10.9a20.4 20.4 0 0110.9-18.2c3.5-1.8 7.3-2.7 11.5-2.7 4 0 7.8.8 11 2.5 3.4 1.7 6 4.1 7.9 7.3 1.9 3.2 2.9 6.9 2.9 11.3zm-21.7-11c-2.2 0-4 .6-5.5 1.9a8.6 8.6 0 00-2.8 5h16.6a8 8 0 00-8.3-7zm57.6 10.1a11 11 0 015.4 3.5 8 8 0 012 5.4c0 2.7-1 5-2.9 7-1.8 2-4.4 3.5-7.6 4.5a45.8 45.8 0 01-29.3-2l3.7-9.6c4.3 1.8 9 2.7 14.3 2.7 2.3 0 4-.3 5.4-1 1.3-.6 2-1.6 2-2.8 0-1-.4-1.8-1.2-2.3a7 7 0 00-3.7-.8h-8.8v-8.3h7.5c3.4 0 5-1 5-3.1s-2.2-3.2-6.6-3.2c-3.9 0-8.2.9-13 2.7l-3.3-9.4a45.3 45.3 0 0117.5-3.7c5.7 0 10.5 1 14.2 3.1 3.8 2 5.7 4.8 5.7 8.5 0 1.8-.6 3.5-1.7 5a11.8 11.8 0 01-4.6 3.8zm57.7-19.6l-17.5 42.4c-2 5-4.6 8.5-7.5 10.5-3 2-6.6 3-10.8 3a21.4 21.4 0 01-11.8-3.7l5-10a9.4 9.4 0 006.3 2.4 6 6 0 003.3-.7c.9-.6 1.6-1.5 2.2-2.7l-17.4-41.2h14.6l10 24.9 10-24.9h13.6zm42.8 0v40.7h-14.3v-29.3H643l-.3 6.2c-.2 5.3-.7 9.7-1.5 13.1-.9 3.5-2.3 6.2-4.2 8.1a11 11 0 01-8 2.9c-1.8 0-4.1-.3-7-1l.6-11.6 1.8.1c1.6 0 2.8-.5 3.6-1.5.8-1 1.3-2.3 1.6-4 .3-1.7.5-3.9.6-6.7l.6-17h36.8zm33.4 12.7c5.4 0 9.5 1.2 12.4 3.5 2.8 2.4 4.2 5.8 4.2 10.1 0 4.5-1.6 8-5 10.7a21 21 0 01-13.4 3.7h-22v-40.7h14.1v12.7h9.7zm-3.2 18.3c3.6 0 5.4-1.7 5.4-5 0-1.5-.5-2.7-1.4-3.5-.9-.7-2.2-1.1-4-1.1h-6.5v9.5h6.5zm58.7-19.6h-13v29.3h-14.2v-29.3H716v-11.4h40.3v11.4zm22.1-12c6.8 0 11.9 1.5 15.5 4.6 3.5 3 5.3 7.8 5.3 14.1v22.6H786v-5.3c-2 4-6 6-12 6-3.1 0-5.9-.6-8.2-1.7-2.3-1-4-2.5-5.2-4.4-1.2-1.9-1.7-4-1.7-6.4 0-3.9 1.4-6.9 4.4-9 3-2.1 7.5-3.2 13.6-3.2h8.1c-.2-4.3-3.1-6.5-8.6-6.5a19 19 0 00-11 3.6l-4.8-9.7a26 26 0 018.2-3.5c3.2-.8 6.5-1.2 9.7-1.2zm-.5 33c1.6 0 3-.4 4.3-1.2 1.3-.8 2.2-2 2.7-3.5v-3.6H779c-4.2 0-6.2 1.4-6.2 4.1 0 1.3.4 2.3 1.4 3 1 .8 2.2 1.2 3.9 1.2zm66.1-21h-13v29.3h-14.2v-29.3h-13.1v-11.4h40.3v11.4z"/><rect width="600" height="158" x="249.1" y="80.1" fill="#F068AF" rx="50" transform="rotate(5.6 249.1 80.1)"/><path fill="#fff" d="M338.5 168.1c2 .9 3.5 2 4.4 3.6 1 1.5 1.3 3.2 1.1 5.3-.3 3-1.7 5.4-4.3 7a17 17 0 01-10.5 1.6l-17.9-1.8 3.5-34.8 16.9 1.7a17 17 0 019.4 3.3 7.6 7.6 0 012.9 7 8.2 8.2 0 01-5.5 7.1zm-15.4-4.2l6.3.6c2.7.3 4.3-.7 4.5-3 .2-2.3-1-3.6-3.9-3.9l-6.2-.6-.7 6.9zm6.4 14.6c2.9.3 4.4-.8 4.6-3.2.3-2.4-1-3.7-3.9-4l-7.8-.7-.7 7.1 7.8.8zm32-17.4c4.5.4 7.8 1.8 10 4 2.1 2.3 3 5.5 2.6 9.8l-1.5 15-8.8-1 .3-3.4c-1.6 2.5-4.4 3.5-8.3 3.1-2.1-.2-3.9-.7-5.3-1.6-1.5-.9-2.5-2-3.2-3.3a8.1 8.1 0 01-.7-4.4 6.9 6.9 0 013.5-5.6c2-1.2 5.2-1.6 9.2-1.2l5.4.5c.1-2.9-1.6-4.5-5.3-4.9a12.7 12.7 0 00-7.5 1.7l-2.6-6.8a25.6 25.6 0 0112.2-2zm-2.5 21.8c1.1.1 2.1 0 3-.5.9-.4 1.5-1.2 2-2.1l.2-2.4-4-.4c-2.8-.3-4.3.5-4.5 2.3 0 .9.2 1.6.8 2.1a4 4 0 002.5 1zm48.1.6l-2.7-.2-1 9.6-9.3-1 1-9.6-2.9-.2-5.8 9-11.2-1 9.5-13.1-6.3-13.8 10 1 4.3 10.4 3 .3 1-10 9.4 1-1 10 3 .2 6.2-9.4 10 1-8.8 12.3 6.8 14.7-11.2-1-4-10.2zm21.1-15.4l9.4.9-1 10 9.7 1 1-10 9.5.9-2.7 27-9.4-1 1-9.5-9.8-1-1 9.5-9.3-.9 2.6-27zm46 4c4.5.4 7.8 1.8 10 4.1 2.1 2.3 3 5.5 2.6 9.7l-1.5 15-8.8-.9.3-3.5c-1.6 2.5-4.4 3.6-8.3 3.2-2.1-.2-3.9-.8-5.3-1.6-1.5-1-2.6-2-3.2-3.3a8.1 8.1 0 01-.8-4.4 6.9 6.9 0 013.6-5.6c2-1.3 5.1-1.7 9.2-1.3l5.4.5c.1-2.8-1.7-4.5-5.3-4.8a12.7 12.7 0 00-7.5 1.6l-2.6-6.7c1.6-.9 3.5-1.5 5.6-1.8 2.3-.3 4.4-.4 6.6-.2zm-2.5 21.9c1.1 0 2 0 3-.5.9-.5 1.5-1.2 2-2.2l.2-2.3-4-.4c-2.8-.3-4.3.5-4.5 2.3 0 .8.2 1.5.8 2 .6.6 1.4 1 2.5 1zm47.3-17l-2.6 27-8.4-.9.7-7.3-4.3-.4-5.5 6.8-10-1 6.8-8c-1.7-1-3-2.2-3.8-3.6-.8-1.5-1.1-3.2-1-5.1a8.8 8.8 0 014.4-7.2c2.6-1.5 6-2 10.1-1.7L519 177zm-14.1 6.1c-2.7-.3-4 .6-4.3 2.6 0 1.1.1 2 .7 2.5a5 5 0 003 1l5 .5.6-6.1-5-.5zm35-4.1l9.3 1-1 10 9.8.9 1-10 9.4.9-2.6 27-9.5-1 1-9.4-9.8-1-.9 9.5-9.4-1 2.6-27zm45.5 32.1a17 17 0 01-7.7-2.5 13.8 13.8 0 01-5-5.5c-1-2.3-1.4-4.8-1.2-7.4a13.5 13.5 0 018.5-11.4 17 17 0 018.1-1 17 17 0 017.7 2.5 13 13 0 016.2 12.8 13.4 13.4 0 01-8.6 11.5 17 17 0 01-8 1zm.7-7.5c1.7.2 3-.3 4.3-1.3 1.1-1 1.8-2.6 2-4.6.2-2-.2-3.6-1.1-4.8-1-1.3-2.3-2-4-2.1-1.6-.2-3 .2-4.2 1.3a6.6 6.6 0 00-2 4.5c-.2 2 .2 3.7 1.1 5 1 1.2 2.3 1.9 4 2zm42.1-3c3 1.3 4.3 3.6 4 6.8a6.8 6.8 0 01-3.4 5.5c-2 1.1-4.9 1.6-8.5 1.2l-15.2-1.5 2.6-27 14.5 1.5c3.5.3 6.2 1.2 8 2.6a5.8 5.8 0 012.4 5.5 6 6 0 01-1.3 3.3 7 7 0 01-3 2.1zm-13-3.3l5.1.5c2.2.2 3.4-.5 3.5-2 .2-1.7-.8-2.5-3-2.8l-5.2-.5-.5 4.8zM620 208c2.3.2 3.5-.5 3.7-2.2.2-1.6-.9-2.6-3.1-2.8l-6-.6-.5 5 6 .6zm29.5 9.5a17 17 0 01-7.7-2.5 13.8 13.8 0 01-5-5.6c-1-2.2-1.4-4.7-1.2-7.4a13.5 13.5 0 018.5-11.4 17 17 0 018.1-1 17 17 0 017.7 2.6 13 13 0 016.2 12.8 13.4 13.4 0 01-8.6 11.5 17 17 0 01-8 1zm.7-7.5c1.7.2 3-.3 4.3-1.3 1.1-1 1.8-2.6 2-4.6.2-2-.2-3.6-1.1-4.9-1-1.2-2.3-1.9-4-2-1.6-.2-3 .2-4.2 1.2a6.6 6.6 0 00-2 4.6c-.2 2 .2 3.6 1.1 4.9 1 1.2 2.3 2 4 2.1zm32.5 10.8c-3-.3-5.6-1.2-7.9-2.6-2.2-1.4-3.9-3.3-5-5.5-1-2.3-1.5-4.8-1.2-7.4.2-2.7 1.1-5 2.6-7s3.5-3.5 6-4.4c2.5-1 5.2-1.3 8.2-1 3 .3 5.6 1.2 7.7 2.8 2.1 1.5 3.5 3.4 4.2 5.8l-7.7 3c-1-2.5-2.6-3.9-5-4.1-1.7-.2-3.1.3-4.4 1.3-1.2 1-1.9 2.5-2 4.5-.3 2 .1 3.7 1.1 5 1 1.2 2.4 1.9 4 2 2.4.3 4.3-.8 5.8-3l7 4.4a11 11 0 01-5.3 5c-2.4 1-5 1.5-8.1 1.2zm42.7-16l-8.7-.8-1.9 19.5-9.4-1 2-19.4-8.8-.9.8-7.5 26.7 2.6-.7 7.6zm19.4 2.8c3.6.4 6.2 1.5 8 3.2 1.7 1.7 2.4 4 2.2 7-.3 3-1.7 5.2-4 6.7a14 14 0 01-9.2 1.6l-14.6-1.4 2.6-27 9.4 1-.8 8.3 6.4.6zm-3.3 12c2.4.2 3.7-.8 3.9-3 0-1-.1-1.8-.7-2.4-.5-.5-1.4-.9-2.6-1l-4.3-.5-.6 6.4 4.3.4zm18.7-26.9l11.2 1.1-4 22-7.5-.7.3-22.4zm2.2 35.9c-1.7-.2-3-.8-4-2a5 5 0 01-1.2-3.8c.1-1.5.8-2.7 2-3.5a5.9 5.9 0 014.2-1c1.6 0 3 .7 3.9 1.8 1 1 1.3 2.3 1.2 3.8a5 5 0 01-2 3.6 5.7 5.7 0 01-4.1 1z"/><rect width="720" height="200" x="182" y="619" fill="#FFB378" rx="50" transform="rotate(-7.9 182 619)"/><path fill="#fff" d="M445.2 714.3a16.8 16.8 0 01-5.7 5.7c-2.3 1.5-5 2.4-8 2.8-2.8.4-5.5.4-8 0-2.3-.4-4.9-1.3-7.5-2.7a60 60 0 01-8.8-6 29 29 0 01-12.8-3.2 26.5 26.5 0 01-14.1-20.2c-.7-5.2-.1-10 1.8-14.5 2-4.4 5-8.1 9-11 4-3 8.8-4.8 14.3-5.6 5.5-.8 10.6-.3 15.3 1.4a26.2 26.2 0 0117.4 21.6 26.3 26.3 0 01-14.2 27.6c1.1 1 2.2 1.6 3.2 1.9 1 .3 2.1.4 3.3.2 3-.4 5.4-2 7.4-4.7l7.4 6.7zm-50-25.7c.3 3 1.3 5.4 2.9 7.5a13.5 13.5 0 0013.1 5.4 13.6 13.6 0 0011.2-8.7c1-2.5 1.2-5.2.8-8.1-.4-3-1.4-5.4-3-7.5a13.4 13.4 0 00-13-5.4 13.4 13.4 0 00-11.2 8.8c-1 2.4-1.3 5-.9 8zm78.3 16.7a25 25 0 01-18.9-3.8c-4.8-3.7-7.8-9.3-8.9-17l-4-28.9 14.7-2 4 28.4c1.1 8.3 5 12 11.6 11 6.5-.8 9.2-5.5 8-13.8l-3.9-28.4 14.5-2 4 28.9c1 7.7-.2 14-4 18.8a24.7 24.7 0 01-17 8.8zm55.1-22.8l-8 1.1 1.9 13.8-14.7 2-7.2-52 23.7-3.2c4.8-.7 9-.5 12.6.6 3.7 1 6.7 3 9 5.6 2.3 2.6 3.7 5.9 4.2 9.8.5 3.8.1 7.2-1.3 10.2-1.3 3-3.5 5.6-6.6 7.6l13.5 14.8L540 695l-11.4-12.5zm6.7-20.2a7.2 7.2 0 00-3.1-5.4c-1.7-1.1-4.1-1.4-7.1-1l-8.2 1.1 2.1 15.2 8.2-1.1c3-.4 5.2-1.4 6.5-2.9a7.2 7.2 0 001.6-6zm61 14.6l-22 3-2.8 10.7-15 2 15.8-55 14.5-2.1 30.2 48.8-15.3 2.1-5.5-9.5zm-5.9-10.3l-9-15.7-4.4 17.6 13.4-1.9zm61.1-14.7l13-1.8 3 21.5a41.2 41.2 0 01-21 9.6c-5.3.8-10.4.4-15-1.3a26.3 26.3 0 01-17.3-21.7 25.6 25.6 0 0110.8-25.5c4-3 8.8-4.8 14.4-5.6 4.8-.6 9.3-.4 13.4.7 4.1 1 7.6 3 10.6 5.7l-8.1 9.8c-4-3.4-8.6-4.8-13.5-4-4.4.5-7.8 2.4-10.2 5.5-2.3 3-3.2 6.8-2.6 11.3a16 16 0 003 7.5c1.5 2 3.5 3.6 5.9 4.6a19 19 0 0015.6-2l-2-14.3zm59.6 9l-22 3.1-2.7 10.7-15 2 15.7-55.1 14.5-2 30.3 48.8-15.3 2-5.5-9.4zm-5.9-10.2l-9-15.7-4.3 17.6 13.4-1.9z"/></g><defs><linearGradient id="paint0_linear" x1="80" x2="612" y1="36" y2="1888" gradientUnits="userSpaceOnUse"><stop stop-color="#7033BE"/><stop offset="1" stop-color="#430F83"/></linearGradient><clipPath id="clip0"><path fill="#fff" d="M0 0h1080v1920H0z"/></clipPath></defs></svg>
