<svg xmlns="http://www.w3.org/2000/svg" fill="none" viewBox="0 0 1200 650"><g clip-path="url(#clip0)"><path fill="url(#paint0_linear)" d="M0 0h1200v650H0z"/><path fill="#fff" fill-rule="evenodd" d="M1029 1187c374.45 0 678-303.55 678-678s-303.55-678-678-678-678 303.55-678 678 303.55 678 678 678zm0-103.4c317.34 0 574.6-257.26 574.6-574.6 0-317.34-257.26-574.6-574.6-574.6-317.34 0-574.6 257.26-574.6 574.6 0 317.34 257.26 574.6 574.6 574.6z" clip-rule="evenodd" opacity=".08"/><path fill="#fff" fill-rule="evenodd" d="M1022 1397c490.43 0 888-397.57 888-888s-397.57-888-888-888S134 18.57 134 509s397.57 888 888 888zm0-119.32c424.53 0 768.68-344.15 768.68-768.68S1446.53-259.68 1022-259.68 253.33 84.47 253.33 509s344.14 768.68 768.67 768.68z" clip-rule="evenodd" opacity=".04"/><path fill="#fff" fill-rule="evenodd" d="M1048 1006c274.49 0 497-222.51 497-497S1322.49 12 1048 12 551 234.51 551 509s222.51 497 497 497zm0-99.2c219.7 0 397.8-178.1 397.8-397.8 0-219.7-178.1-397.8-397.8-397.8-219.7 0-397.8 178.1-397.8 397.8 0 219.7 178.1 397.8 397.8 397.8z" clip-rule="evenodd" opacity=".12"/><path fill="#fff" fill-rule="evenodd" d="M1039 776c159.06 0 288-128.94 288-288s-128.94-288-288-288-288 128.94-288 288 128.94 288 288 288zm0-82.29c113.61 0 205.71-92.1 205.71-205.71 0-113.61-92.1-205.71-205.71-205.71-113.61 0-205.71 92.1-205.71 205.71 0 113.61 92.1 205.71 205.71 205.71z" clip-rule="evenodd" opacity=".15"/><path fill="#fff" d="M1288.5-8.5L-9 117.18-22 342l1298.5-140.5 12-210z"/><rect width="436.7" height="121.31" x="376.21" y="252.07" fill="#FFB378" rx="30" transform="rotate(-5.87 376.2 252.07)"/><path fill="#fff" d="M541.67 310.87a8.94 8.94 0 01-3.15 2.94c-1.26.75-2.7 1.2-4.28 1.36-1.54.16-2.96.1-4.24-.16-1.3-.27-2.62-.8-3.99-1.6a31.86 31.86 0 01-4.6-3.4c-2.46-.14-4.7-.78-6.72-1.92a14.14 14.14 0 01-4.93-4.56 14.41 14.41 0 01-2.24-6.48c-.28-2.76.13-5.3 1.23-7.65a14.32 14.32 0 015-5.74 16.88 16.88 0 017.76-2.69c2.95-.3 5.65.05 8.11 1.06a14 14 0 018.86 11.84 14.02 14.02 0 01-8.09 14.42 5.2 5.2 0 001.68 1.07c.55.19 1.14.25 1.75.19a5.75 5.75 0 004.02-2.39l3.83 3.71zm-26.19-14.64a8.66 8.66 0 001.42 4.08 7.23 7.23 0 006.92 3.1 7.24 7.24 0 006.14-4.45c.53-1.28.72-2.7.56-4.27a8.43 8.43 0 00-1.42-4.04 7.16 7.16 0 00-3-2.55 7.5 7.5 0 00-3.92-.6 7.17 7.17 0 00-6.13 4.49 8.42 8.42 0 00-.57 4.24zm41.47 10.38c-4.14.42-7.48-.37-10.02-2.4-2.51-2.01-3.98-5.1-4.4-9.23l-1.6-15.44 7.89-.8 1.56 15.2c.46 4.45 2.45 6.5 5.98 6.13 3.5-.36 5.02-2.76 4.56-7.22l-1.56-15.2 7.76-.8 1.59 15.44c.42 4.14-.4 7.45-2.48 9.94-2.05 2.5-5.14 3.95-9.28 4.38zm29.78-11.1l-4.3.44.77 7.4-7.88.8-2.86-27.85 12.73-1.3c2.52-.26 4.75-.06 6.7.6a9.62 9.62 0 014.66 3.13 9.77 9.77 0 012.07 5.3 9.75 9.75 0 01-.89 5.44 9.52 9.52 0 01-3.65 3.91l6.9 8.14-8.43.87-5.82-6.89zm3.93-10.66a3.82 3.82 0 00-1.54-2.9c-.9-.63-2.15-.87-3.77-.7l-4.38.45.84 8.16 4.38-.45c1.62-.17 2.8-.64 3.55-1.41.75-.8 1.06-1.85.92-3.15zm32.22 8.95l-11.78 1.21-1.63 5.64-8.04.82 9.43-29.11 7.76-.8 15.2 26.58-8.2.85-2.74-5.19zm-2.9-5.57l-4.5-8.55-2.67 9.28 7.16-.73zm32.85-6.72l6.97-.71 1.18 11.54a18.27 18.27 0 01-5.22 3.19c-2 .82-4.04 1.34-6.11 1.55-2.92.3-5.6-.04-8.07-1.02a14.02 14.02 0 01-8.78-11.88c-.28-2.79.12-5.35 1.22-7.69a13.68 13.68 0 015-5.7 16.95 16.95 0 017.81-2.7 17.9 17.9 0 017.14.6c2.16.66 4.01 1.75 5.56 3.25l-4.55 5.05a8.88 8.88 0 00-7.08-2.4 7.84 7.84 0 00-5.54 2.77c-1.32 1.59-1.85 3.58-1.6 6a8.58 8.58 0 001.42 4.03 7.35 7.35 0 003.08 2.54c1.26.54 2.66.74 4.2.58 1.5-.16 2.9-.6 4.16-1.36l-.79-7.63zm31.56 5.97l-11.78 1.21-1.63 5.64-8.04.82 9.43-29.11 7.76-.8 15.2 26.58-8.2.85-2.74-5.19zm-2.9-5.57l-4.5-8.55-2.67 9.28 7.16-.73z"/><path fill="#004BA1" d="M141.75 194.89l4.69 41.73-11.63 1.31-1.18-10.5-6.44.73-5.67 11.27-12.4 1.39 7.09-13.17a14.18 14.18 0 01-6.98-4.6 15.49 15.49 0 01-3.14-8.1c-.37-3.25.07-6.16 1.3-8.71a14.62 14.62 0 015.9-6.22c2.67-1.59 5.9-2.6 9.67-3.02l18.79-2.11zm-17.5 11.38c-4.65.52-6.74 2.91-6.26 7.17.24 2.1 1 3.65 2.27 4.63 1.32.94 3.08 1.28 5.31 1.03l7.04-.79-1.44-12.81-6.92.77zm63.83 26.21a20.3 20.3 0 01-9.6-1.09 16.53 16.53 0 01-7.23-5.22 16.4 16.4 0 01-3.3-8.39c-.36-3.18.1-6.13 1.36-8.85a16.18 16.18 0 015.84-6.63 20.42 20.42 0 019.17-3.2c3.5-.4 6.72-.04 9.67 1.08a15.69 15.69 0 017.16 5.17 16.08 16.08 0 013.29 8.33c.36 3.22-.09 6.19-1.35 8.9a16.1 16.1 0 01-5.83 6.7 20.42 20.42 0 01-9.18 3.2zm-1.01-9a6.45 6.45 0 004.66-2.58c1.11-1.53 1.53-3.51 1.26-5.93-.27-2.39-1.11-4.19-2.54-5.4a6.46 6.46 0 00-5.11-1.47 6.46 6.46 0 00-4.66 2.58c-1.13 1.49-1.55 3.43-1.28 5.81.27 2.43 1.12 4.26 2.55 5.51a6.46 6.46 0 005.12 1.48zm41.17-25.88a17.2 17.2 0 018.38.93c2.43.93 4.38 2.46 5.82 4.6a15.98 15.98 0 012.73 7.6 14.2 14.2 0 01-1.47 8.38 15.77 15.77 0 01-5.9 6.15 21.98 21.98 0 01-9.08 2.96c-5.68.63-10.41-.62-14.19-3.78-3.78-3.16-6.06-8.28-6.86-15.35-1.49-13.28 3.52-21.7 15.04-25.24l15.34-4.74 2.62 9.3-13.3 4.1c-3.4 1.02-5.82 2.34-7.29 3.95-1.43 1.57-2.16 3.7-2.18 6.4 2.6-3.02 6.04-4.78 10.34-5.26zm-.42 22.02a6.06 6.06 0 004.55-2.5 7.04 7.04 0 001.23-5.1c-.23-2.06-1-3.6-2.33-4.62a6.49 6.49 0 00-4.97-1.25c-2.03.23-3.59 1-4.69 2.34-1.06 1.32-1.47 3.02-1.24 5.09a6.77 6.77 0 002.4 4.68 6.46 6.46 0 005.05 1.36zm40.2-19.25c4.26-.44 7.56.16 9.92 1.78 2.36 1.63 3.73 4.17 4.12 7.63.4 3.62-.53 6.58-2.8 8.89-2.24 2.3-5.63 3.7-10.16 4.16l-17.06 1.92-3.63-32.32 11.27-1.27 1.13 10.02 7.21-.8zm14.44-11.77l11.26-1.26 3.64 32.31-11.27 1.27-3.63-32.32zm-15.37 26.6c2.86-.31 4.15-1.77 3.86-4.35-.14-1.27-.6-2.17-1.39-2.68-.78-.52-1.9-.72-3.33-.6l-4.65.53.86 7.57 4.65-.46zm62.39-22.77l-15.8 1.78 2.62 23.31-11.27 1.27-3.63-32.32 27.07-3.04 1 9zm23.69-12.32c2.94-.33 5.68.06 8.22 1.19a14.56 14.56 0 016.38 5.2 17.49 17.49 0 013.14 8.52c.37 3.34-.01 6.36-1.16 9.07a15.08 15.08 0 01-5.06 6.48 16.02 16.02 0 01-7.77 2.93c-3.77.42-6.9-.37-9.38-2.39l1.62 14.43-11.33 1.28-4.93-43.89 10.79-1.21.36 3.22c1.83-2.74 4.87-4.35 9.12-4.83zm.36 24.65a6.46 6.46 0 004.66-2.57c1.11-1.54 1.54-3.5 1.27-5.88-.27-2.39-1.12-4.18-2.54-5.4a6.37 6.37 0 00-5.12-1.53 6.37 6.37 0 00-4.66 2.64c-1.12 1.5-1.54 3.43-1.28 5.82.27 2.38 1.12 4.2 2.55 5.45a6.46 6.46 0 005.12 1.47zm33.42-28.45c5.36-.6 9.6.17 12.7 2.32 3.09 2.1 4.92 5.68 5.49 10.73l2.02 17.95-10.56 1.18-.47-4.17c-1.27 3.32-4.28 5.25-9 5.78-2.51.28-4.73.1-6.65-.58a9.98 9.98 0 01-4.57-3.05 9.77 9.77 0 01-1.95-4.97c-.34-3.06.56-5.56 2.72-7.5 2.15-1.96 5.68-3.22 10.56-3.78l6.44-.72c-.58-3.4-3.06-4.85-7.43-4.36-1.55.18-3.1.61-4.62 1.3a12.2 12.2 0 00-3.83 2.5l-4.68-7.27a20.8 20.8 0 016.19-3.47c2.5-.97 5.05-1.6 7.64-1.89zm2.53 26.28a6.33 6.33 0 003.35-1.34 5.35 5.35 0 001.83-3.04l-.31-2.8-4.9.54c-3.3.37-4.82 1.65-4.57 3.84a2.9 2.9 0 001.4 2.26c.82.5 1.89.69 3.2.54zm53.77-32.07l3.63 32.32-11.32 1.27-2.63-23.31-8.16.92.31 4.97a53.5 53.5 0 01-.07 10.58c-.37 2.82-1.24 5.09-2.62 6.81-1.38 1.69-3.42 2.68-6.12 2.99-1.4.15-3.25.1-5.58-.16l-.56-9.3c.73 0 1.2-.01 1.44-.04 1.24-.14 2.13-.64 2.67-1.5.55-.87.87-1.97.96-3.31a40.8 40.8 0 00-.13-5.42l-1.03-13.53 29.21-3.29zm52.75 9.65c3.84.82 5.97 3.15 6.4 7a8.11 8.11 0 01-2.62 7.25c-2.08 1.88-5.33 3.07-9.74 3.57l-18.19 2.04-3.63-32.31 17.35-1.96c4.21-.47 7.55-.1 10.02 1.11a6.98 6.98 0 014.22 5.8 7.3 7.3 0 01-.73 4.26 8.41 8.41 0 01-3.08 3.24zm-16.19-.6l6.2-.7c2.63-.29 3.83-1.4 3.61-3.36-.2-1.86-1.63-2.65-4.25-2.36l-6.2.7.64 5.72zm8.39 11.2c2.74-.31 4-1.46 3.78-3.45-.23-1.98-1.67-2.83-4.33-2.53l-7.16.8.67 5.97 7.04-.8zm37.25 3.78c-3.58.4-6.86.04-9.84-1.07a16.42 16.42 0 01-7.29-5.22 16.38 16.38 0 01-3.3-8.38c-.36-3.22.1-6.17 1.36-8.85a16.01 16.01 0 015.96-6.65 21.06 21.06 0 019.36-3.22c3.65-.41 6.9.03 9.75 1.32a12.98 12.98 0 016.4 5.86l-8.27 5.46c-1.8-2.74-4.1-3.95-6.93-3.63a6.92 6.92 0 00-4.84 2.6c-1.16 1.5-1.6 3.44-1.34 5.82.27 2.43 1.14 4.26 2.61 5.5a6.92 6.92 0 005.3 1.46c2.82-.31 4.8-2 5.95-5.07l9.27 3.48c-.8 2.9-2.45 5.3-4.93 7.2a18.63 18.63 0 01-9.22 3.39zm50.4-22.51l.13 2.82-23.49 2.64a6.8 6.8 0 003.18 3.57c1.5.72 3.27.96 5.34.73a11 11 0 003.92-1.1c1.1-.58 2.17-1.42 3.21-2.54l6.66 5.53c-2.74 3.85-7.14 6.11-13.18 6.8-3.78.42-7.18.07-10.2-1.03a16.33 16.33 0 01-7.35-5.22 16.38 16.38 0 01-3.3-8.38c-.35-3.18.08-6.1 1.31-8.78a16.28 16.28 0 015.71-6.68c2.54-1.74 5.5-2.8 8.88-3.17 3.22-.37 6.22-.02 9 1.04a14.84 14.84 0 016.85 5.08 16.76 16.76 0 013.33 8.69zm-18.21-6.77a6.7 6.7 0 00-4.25 1.99 6.84 6.84 0 00-1.75 4.3l13.24-1.49a6.47 6.47 0 00-7.24-4.8zm45.58 19.99l-6.73-7.82-5.25 9.17-12.28 1.38 10.46-17.54-13.74-14.82 12.76-1.43 6.64 7.52 5.05-8.84 11.98-1.34-10.15 17.08 14.2 15.19-12.94 1.45zm71.31-17.2l1.77 15.75-10.5 1.18-.74-6.68-20.34 2.28.75 6.68-10.55 1.19-1.77-15.74 1.2-.14c1.94-.26 3.17-1.46 3.7-3.61.51-2.2.64-5.19.37-8.98l-.85-11.32 29.87-3.36 2.62 23.26 4.47-.5zm-25.82-8.38a53 53 0 01.13 7.05 8.82 8.82 0 01-1.32 4.37l11.21-1.26-1.6-14.25-8.65.97.23 3.12zm48.35-18.24c2.94-.33 5.68.07 8.22 1.19a14.56 14.56 0 016.38 5.2 17.46 17.46 0 013.13 8.52c.38 3.34 0 6.36-1.15 9.07a15.07 15.07 0 01-5.07 6.49 16.02 16.02 0 01-7.76 2.92c-3.78.42-6.9-.37-9.38-2.39l1.62 14.43-11.33 1.28-4.94-43.89 10.8-1.21.36 3.22c1.82-2.74 4.86-4.35 9.12-4.83zm.35 24.66a6.46 6.46 0 004.67-2.58c1.11-1.54 1.53-3.5 1.27-5.88-.27-2.38-1.12-4.18-2.54-5.39a6.37 6.37 0 00-5.13-1.54 6.37 6.37 0 00-4.65 2.64c-1.12 1.5-1.55 3.43-1.28 5.82.27 2.38 1.12 4.2 2.55 5.45a6.46 6.46 0 005.11 1.48zm54.6-30.3L741.84 171c-1.19 4.16-2.86 7.17-5.03 9.02-2.16 1.9-4.93 3.03-8.3 3.41-1.72.2-3.48.1-5.3-.25a12.16 12.16 0 01-4.4-1.62l3.05-8.37c.7.52 1.5.9 2.41 1.12.96.25 1.9.33 2.8.22a4.78 4.78 0 002.56-.95 4.97 4.97 0 001.55-2.29l-17.51-31.17 11.63-1.31 10.14 18.84 5.77-20.63 10.8-1.21zm27.56 12.66a8.81 8.81 0 014.6 2.26 6.37 6.37 0 012.03 4.12c.24 2.15-.3 4.1-1.63 5.86a14.32 14.32 0 01-5.68 4.27 28.9 28.9 0 01-8.46 2.15c-5.48.62-10.47.23-14.98-1.15l2.07-7.96a29.4 29.4 0 0011.63.87 9.65 9.65 0 004.14-1.26c1.02-.63 1.47-1.43 1.36-2.38-.1-.88-.48-1.48-1.16-1.8a5.67 5.67 0 00-3-.27l-6.97.78-.74-6.62 5.96-.67c2.66-.3 3.9-1.26 3.72-2.89-.2-1.7-2.06-2.37-5.6-1.97-3.06.35-6.4 1.45-10.01 3.3l-3.52-7.15c4.47-2.47 9-3.97 13.56-4.48 4.57-.52 8.44-.13 11.6 1.17 3.17 1.25 4.9 3.33 5.24 6.23a6.9 6.9 0 01-.86 4.2 9.44 9.44 0 01-3.3 3.4zm44.2-4.3c.02.08.06 1.02.14 2.82l-23.49 2.64a6.79 6.79 0 003.18 3.57c1.49.72 3.27.96 5.33.73 1.56-.18 2.86-.54 3.93-1.1a11.8 11.8 0 003.21-2.54l6.66 5.53c-2.74 3.85-7.14 6.11-13.18 6.8-3.78.42-7.18.08-10.2-1.03a16.35 16.35 0 01-7.35-5.22 16.39 16.39 0 01-3.3-8.38 16.3 16.3 0 011.31-8.78 16.3 16.3 0 015.71-6.68c2.54-1.74 5.5-2.8 8.88-3.17 3.22-.36 6.22-.02 9 1.04a14.84 14.84 0 016.85 5.09 16.76 16.76 0 013.33 8.68zm-18.2-6.77a6.7 6.7 0 00-4.25 1.99 6.84 6.84 0 00-1.75 4.3l13.24-1.49a6.47 6.47 0 00-7.24-4.8zm22.37-10.12l11.27-1.27 1.9 16.93 11.63-18.45 10.44-1.17 3.63 32.31-11.32 1.28-1.92-17-11.5 18.5-10.5 1.18-3.63-32.31zm16.53-5c-3.82.43-6.73-.05-8.74-1.43-1.97-1.43-3.16-3.81-3.58-7.15l7.34-.82a5.1 5.1 0 001.3 3.05c.68.6 1.67.84 2.98.7 1.31-.16 2.25-.62 2.8-1.41.6-.8.82-1.86.67-3.21l7.45-.84c.37 3.34-.28 5.93-1.97 7.77-1.64 1.8-4.4 2.9-8.25 3.34zm71.46 10.68c3.84.82 5.97 3.15 6.4 7a8.1 8.1 0 01-2.62 7.25c-2.08 1.88-5.33 3.07-9.74 3.57l-18.19 2.04-3.63-32.31 17.35-1.95c4.21-.48 7.55-.1 10.02 1.1a6.98 6.98 0 014.22 5.8 7.3 7.3 0 01-.73 4.26 8.4 8.4 0 01-3.08 3.24zm-16.18-.6l6.2-.7c2.62-.29 3.82-1.4 3.6-3.36-.2-1.86-1.62-2.65-4.25-2.36l-6.2.7.65 5.73zm8.38 11.2c2.74-.3 4-1.46 3.78-3.45-.23-1.98-1.67-2.83-4.33-2.53l-7.16.8.67 5.97 7.04-.8zm34.7-29.2l11.26-1.27 1.9 16.93 11.64-18.45 10.43-1.17 3.64 32.31-11.33 1.28-1.91-17-11.5 18.5-10.5 1.19-3.64-32.32zm70.93 1.14l-15.8 1.78 2.62 23.31-11.27 1.27-3.63-32.32 27.07-3.04 1.01 9zm23.69-12.32c2.94-.34 5.68.06 8.22 1.18a14.58 14.58 0 016.39 5.2 17.54 17.54 0 013.13 8.53 17.8 17.8 0 01-1.16 9.06 15.13 15.13 0 01-5.06 6.49 16.05 16.05 0 01-7.77 2.93c-3.77.42-6.9-.38-9.38-2.4l1.62 14.44-11.33 1.27-4.93-43.88 10.79-1.21.36 3.22c1.83-2.75 4.87-4.36 9.12-4.83zm.36 24.65a6.47 6.47 0 004.66-2.58c1.11-1.53 1.54-3.5 1.27-5.88s-1.11-4.18-2.54-5.39a6.37 6.37 0 00-5.12-1.53 6.38 6.38 0 00-4.66 2.63c-1.12 1.5-1.54 3.44-1.27 5.82.26 2.39 1.11 4.2 2.54 5.45a6.46 6.46 0 005.12 1.48zm55.56-13.98l.13 2.83-23.49 2.64a6.83 6.83 0 003.18 3.56c1.49.72 3.27.97 5.34.73 1.55-.17 2.85-.54 3.92-1.1 1.1-.57 2.17-1.41 3.21-2.54l6.66 5.53c-2.74 3.86-7.14 6.12-13.18 6.8-3.78.42-7.18.08-10.2-1.03a16.38 16.38 0 01-7.35-5.2 16.4 16.4 0 01-3.29-8.4c-.36-3.17.07-6.1 1.3-8.77a16.35 16.35 0 015.71-6.68 19.3 19.3 0 018.88-3.18 19 19 0 019 1.05 14.86 14.86 0 016.85 5.08 16.78 16.78 0 013.33 8.68zm-18.21-6.76c-1.75.2-3.17.86-4.25 1.98a6.87 6.87 0 00-1.75 4.3l13.24-1.48a6.47 6.47 0 00-7.24-4.8z"/><rect width="306" height="80" x="45.08" y="70.29" fill="#F068AF" rx="24" transform="rotate(-5 45.08 70.3)"/><path fill="#fff" d="M104.44 105.67c1.02.23 1.81.66 2.38 1.28.58.62.92 1.43 1 2.42a4.16 4.16 0 01-1.43 3.66c-1.08.95-2.67 1.52-4.8 1.7l-8.58.75-1.46-16.73 8.13-.72c2-.17 3.6.08 4.76.74a3.64 3.64 0 011.95 3.06 3.92 3.92 0 01-1.95 3.84zm-7.64-.64l3.01-.26c1.34-.12 1.96-.73 1.86-1.83-.1-1.1-.81-1.59-2.15-1.47l-3.01.26.29 3.3zm4.3 6.32c1.38-.12 2.01-.76 1.91-1.92-.1-1.13-.83-1.64-2.2-1.52l-3.73.33.3 3.44 3.73-.33zm13.57-11.04c2.16-.19 3.84.16 5.06 1.05 1.21.88 1.91 2.33 2.09 4.35l.63 7.2-4.23.37-.15-1.68c-.54 1.32-1.76 2.06-3.66 2.23a6 6 0 01-2.65-.3 4 4 0 01-1.8-1.27 3.9 3.9 0 01-.73-2 3.3 3.3 0 011.16-2.97c.88-.77 2.3-1.24 4.27-1.41l2.58-.23c-.2-1.36-1.18-1.97-2.93-1.81a6.1 6.1 0 00-1.86.47c-.63.25-1.14.57-1.56.96l-1.8-2.95a8.32 8.32 0 012.51-1.33c1.01-.36 2.04-.59 3.07-.68zm.76 10.54c.52-.05.97-.22 1.35-.5.38-.3.63-.7.76-1.2l-.1-1.13-1.96.17c-1.32.12-1.94.61-1.87 1.5.04.39.22.7.54.9.33.22.75.3 1.28.26zm22.76-3.97l-1.34.12.4 4.61-4.47.4-.4-4.62-1.36.12-1.94 4.82-5.38.47 3.31-7.04-4.16-5.95 4.8-.42 2.96 4.56 1.46-.12-.42-4.79 4.47-.39.42 4.78 1.41-.12 2.14-5 4.8-.42-3.08 6.58 4.5 6.35-5.37.47-2.75-4.41zm8.58-9.16l4.51-.4.43 4.81 4.66-.4-.42-4.81 4.54-.4 1.13 12.96-4.54.4-.4-4.55-4.66.41.4 4.55-4.52.39-1.13-12.96zm22.05-2.14c2.15-.2 3.84.16 5.05 1.05 1.22.87 1.92 2.32 2.1 4.34l.62 7.2-4.23.37-.15-1.67c-.54 1.31-1.76 2.05-3.66 2.22-1 .09-1.88-.01-2.65-.3a4 4 0 01-1.8-1.26 3.91 3.91 0 01-.72-2.01 3.3 3.3 0 011.16-2.97c.88-.77 2.3-1.24 4.26-1.4l2.58-.23c-.2-1.37-1.17-1.97-2.93-1.82a6.1 6.1 0 00-1.86.48c-.62.24-1.14.56-1.55.95l-1.8-2.95a8.33 8.33 0 012.5-1.33c1.02-.36 2.04-.58 3.08-.67zm.75 10.53c.53-.05.98-.21 1.36-.5.37-.3.63-.7.76-1.2l-.1-1.13-1.96.17c-1.32.12-1.95.62-1.87 1.5.03.4.21.7.54.91.32.21.75.3 1.27.25zm20.82-12.2l1.13 12.95-4.04.36-.3-3.52-2.06.18-2 3.72-4.8.42 2.51-4.39a4.7 4.7 0 01-2.12-1.38c-.5-.63-.8-1.4-.88-2.33a4.2 4.2 0 011.4-3.74c1.08-.96 2.62-1.53 4.63-1.7l6.53-.57zm-6.12 4.14c-1.28.12-1.87.66-1.79 1.63.05.51.23.87.56 1.08.34.21.82.3 1.46.24l2.42-.21-.26-2.94-2.4.2zm16.13-5.02l4.52-.4.42 4.81 4.66-.4-.42-4.81 4.54-.4 1.13 12.96-4.54.4-.4-4.55-4.66.41.4 4.54-4.52.4-1.13-12.96zm24.32 11.15a8.12 8.12 0 01-3.83-.54 6.6 6.6 0 01-2.84-2.16 6.55 6.55 0 01-1.23-3.38 6.5 6.5 0 01.63-3.53 6.47 6.47 0 012.4-2.6 8.17 8.17 0 013.7-1.18c1.4-.13 2.69.05 3.85.53a6.27 6.27 0 014.05 5.5 6.43 6.43 0 01-3.03 6.17 8.18 8.18 0 01-3.7 1.19zm-.31-3.61c.8-.07 1.42-.4 1.88-.99.47-.6.65-1.39.57-2.36a3.16 3.16 0 00-.96-2.18 2.58 2.58 0 00-2.03-.64c-.8.07-1.43.4-1.9.98a3.16 3.16 0 00-.56 2.32c.08.97.4 1.71.96 2.22.56.5 1.24.72 2.03.65zm19.6-5.14c1.52.36 2.35 1.32 2.48 2.87a3.24 3.24 0 01-1.12 2.87c-.85.73-2.16 1.17-3.93 1.33l-7.3.63-1.13-12.95 6.96-.61c1.7-.15 3.03.03 4 .54 1 .5 1.53 1.3 1.63 2.36.05.62-.06 1.19-.34 1.7-.27.5-.7.92-1.26 1.26zm-6.47-.4l2.48-.22c1.05-.09 1.55-.52 1.48-1.3-.07-.75-.63-1.08-1.68-.99l-2.49.22.2 2.3zm3.24 4.56c1.1-.1 1.61-.54 1.54-1.34-.07-.8-.64-1.15-1.7-1.05l-2.87.25.2 2.39 2.83-.25zm14.74 1.9a8.11 8.11 0 01-3.83-.54 6.6 6.6 0 01-2.84-2.16 6.55 6.55 0 01-1.24-3.39 6.5 6.5 0 01.63-3.52 6.47 6.47 0 012.4-2.6 8.17 8.17 0 013.7-1.19c1.4-.12 2.7.06 3.86.53a6.28 6.28 0 014.05 5.5 6.44 6.44 0 01-3.03 6.17 8.17 8.17 0 01-3.7 1.2zm-.32-3.62c.8-.07 1.43-.4 1.9-.98.45-.6.64-1.4.55-2.36a3.16 3.16 0 00-.96-2.19 2.58 2.58 0 00-2.03-.64c-.8.07-1.42.4-1.89.99a3.16 3.16 0 00-.57 2.31c.09.97.41 1.72.97 2.23.56.5 1.23.71 2.03.64zm16.27 2.22a8.42 8.42 0 01-3.93-.53 6.57 6.57 0 01-2.86-2.16 6.55 6.55 0 01-1.24-3.38c-.1-1.3.1-2.47.63-3.53a6.4 6.4 0 012.45-2.6 8.42 8.42 0 013.78-1.2 7.31 7.31 0 013.88.63 5.2 5.2 0 012.5 2.4l-3.36 2.1c-.69-1.1-1.6-1.6-2.73-1.51-.81.07-1.47.4-1.96.99a3.1 3.1 0 00-.6 2.32c.09.97.42 1.71 1 2.22.58.5 1.28.7 2.1.64 1.13-.1 1.94-.76 2.43-1.97l3.67 1.48a5.3 5.3 0 01-2.04 2.83 7.45 7.45 0 01-3.72 1.27zm18.75-11.28l-4.16.36.82 9.35-4.52.4-.82-9.35-4.18.36-.32-3.6 12.87-1.13.31 3.6zm9.4-.41c1.72-.14 3.07.13 4.05.8.97.67 1.52 1.7 1.64 3.08a4.1 4.1 0 01-1.28 3.54c-.97.9-2.37 1.42-4.2 1.57l-7.03.61-1.13-12.96 4.51-.4.36 4.03 3.08-.27zm-.52 5.92c1.15-.1 1.68-.67 1.59-1.7-.05-.51-.22-.88-.53-1.1-.3-.2-.75-.3-1.33-.26l-2.05.18.26 3.04 2.06-.16zm6.46-14.3l5.4-.47.03 10.72-3.61.31-1.82-10.56zm4.19 16.72c-.8.07-1.47-.11-2.02-.55a2.41 2.41 0 01-.93-1.72c-.06-.72.14-1.33.61-1.84.47-.5 1.1-.8 1.9-.87.8-.07 1.46.1 2 .53.55.42.86.98.92 1.7.06.7-.14 1.32-.6 1.86-.48.52-1.1.82-1.88.89z"/><rect width="250" height="250" x="914" y="363" fill="#fff" rx="125"/><path fill="#fff" d="M81.78 491.08a40 40 0 0037.4 42.44l632.27 39.8a40 40 0 0042.44-37.4l3.2-50.9a40 40 0 00-37.4-42.43l-632.27-39.81a40 40 0 00-42.44 37.4l-3.2 50.9z"/><path fill="#004BA1" d="M180.1 458.2l-1.75 27.94-7.83-.5 1.37-21.67-10.62-.67-1.37 21.68-7.78-.5 1.76-27.94 26.23 1.66zm14.42 29.32a13.53 13.53 0 01-6.18-1.83 11.03 11.03 0 01-4.14-4.27 10.93 10.93 0 01-1.2-5.89c.14-2.13.78-4.01 1.93-5.65a10.8 10.8 0 014.6-3.68 13.6 13.6 0 016.4-1.04c2.34.15 4.4.76 6.21 1.84a10.46 10.46 0 014.1 4.22c.94 1.75 1.33 3.7 1.2 5.85a10.72 10.72 0 01-6.52 9.4 13.6 13.6 0 01-6.4 1.05zm.38-6.03a4.3 4.3 0 003.36-1.15 5.48 5.48 0 001.52-3.75c.1-1.6-.25-2.88-1.05-3.83a4.3 4.3 0 00-3.19-1.57 4.3 4.3 0 00-3.35 1.15 5.27 5.27 0 00-1.52 3.68 5.47 5.47 0 001.04 3.9 4.3 4.3 0 003.19 1.57zm39.13-13.57l-1.36 21.64-7.55-.47.99-15.61-7.27-.46-.98 15.6-7.55-.47 1.37-21.63 22.35 1.4zm18.8.83c1.97.12 3.73.7 5.27 1.73a9.7 9.7 0 013.58 4.15c.86 1.74 1.21 3.73 1.07 5.96a11.87 11.87 0 01-1.8 5.82 10.05 10.05 0 01-4.09 3.67c-1.65.8-3.46 1.15-5.43 1.02-2.53-.16-4.5-1.04-5.89-2.65l-.6 9.66-7.6-.48 1.86-29.38 7.23.45-.14 2.16c1.52-1.59 3.7-2.3 6.55-2.11zm-2.62 16.22a4.3 4.3 0 003.36-1.15 5.41 5.41 0 001.52-3.7c.1-1.6-.25-2.88-1.05-3.84a4.24 4.24 0 00-3.18-1.6 4.24 4.24 0 00-3.36 1.19 5.27 5.27 0 00-1.52 3.67c-.1 1.6.25 2.89 1.04 3.87a4.3 4.3 0 003.19 1.56zm26.14 7.7a13.53 13.53 0 01-6.18-1.83 11.02 11.02 0 01-4.14-4.27 10.93 10.93 0 01-1.2-5.88c.14-2.13.78-4.02 1.93-5.66a10.8 10.8 0 014.6-3.67 13.63 13.63 0 016.4-1.04c2.34.14 4.4.75 6.21 1.83a10.46 10.46 0 014.1 4.23c.94 1.74 1.33 3.69 1.2 5.84a10.72 10.72 0 01-6.52 9.4 13.6 13.6 0 01-6.4 1.05zm.38-6.03a4.3 4.3 0 003.36-1.15 5.48 5.48 0 001.52-3.75c.1-1.6-.25-2.87-1.05-3.83a4.3 4.3 0 00-3.18-1.57 4.3 4.3 0 00-3.36 1.16 5.26 5.26 0 00-1.52 3.67 5.48 5.48 0 001.04 3.91 4.3 4.3 0 003.19 1.56zm30.03-12.21c2.1.13 3.9.66 5.39 1.58 1.5.9 2.6 2.13 3.3 3.7.73 1.54 1.03 3.3.9 5.3a9.47 9.47 0 01-1.94 5.33 10.52 10.52 0 01-4.58 3.36c-1.89.73-3.99 1.03-6.3.88-3.81-.24-6.77-1.61-8.88-4.12-2.12-2.51-3.02-6.14-2.72-10.88.56-8.88 4.82-13.83 12.8-14.82l10.62-1.33.63 6.4-9.2 1.15c-2.35.28-4.1.87-5.25 1.75a6.16 6.16 0 00-2.17 3.96 10.21 10.21 0 017.4-2.26zm-2.83 14.4a4.04 4.04 0 003.27-1.1 4.7 4.7 0 001.4-3.2 4.3 4.3 0 00-.99-3.32 4.33 4.33 0 00-3.12-1.4 4.52 4.52 0 00-3.34 1 4.43 4.43 0 00-1.4 3.2 4.52 4.52 0 001.02 3.35c.78.9 1.83 1.4 3.16 1.48zm39.16-14.04l-10.76 21.93c-1.26 2.6-2.7 4.37-4.34 5.34a9.85 9.85 0 01-5.86 1.27 11.48 11.48 0 01-3.43-.78 8.08 8.08 0 01-2.7-1.57l2.96-5.14c.4.42.89.76 1.46 1.01.6.28 1.2.44 1.81.47.72.05 1.32-.06 1.79-.32.5-.27.92-.7 1.28-1.33l-7.88-22.5 7.78.5 4.48 13.54 6.18-12.87 7.23.45zm2.46.16l7.55.47-.72 11.34 9.78-10.77 6.98.44-1.36 21.64-7.58-.48.71-11.38-9.7 10.82-7.02-.45 1.36-21.63zm11.43-1.37c-2.56-.16-4.41-.81-5.57-1.95-1.13-1.17-1.64-2.87-1.52-5.1l4.9.3a3.4 3.4 0 00.51 2.16c.38.47 1 .74 1.88.8.88.05 1.54-.15 2-.6.48-.45.75-1.13.8-2.03l5 .31c-.14 2.24-.87 3.86-2.2 4.87-1.28 1-3.22 1.4-5.8 1.24zm38.16 26.57a13.54 13.54 0 01-6.18-1.83 11 11 0 01-4.14-4.27 10.91 10.91 0 01-1.2-5.88c.14-2.13.78-4.02 1.93-5.66a10.8 10.8 0 014.6-3.67 13.62 13.62 0 016.4-1.04c2.33.14 4.4.75 6.21 1.83a10.46 10.46 0 014.1 4.23c.94 1.74 1.33 3.69 1.2 5.84a10.73 10.73 0 01-6.52 9.4 13.62 13.62 0 01-6.4 1.05zm.38-6.03a4.3 4.3 0 003.35-1.15 5.48 5.48 0 001.52-3.75c.1-1.6-.24-2.87-1.04-3.83a4.3 4.3 0 00-3.19-1.57 4.3 4.3 0 00-3.36 1.16 5.27 5.27 0 00-1.5 3.67 5.48 5.48 0 001.03 3.91 4.3 4.3 0 003.19 1.56zm30.03-12.21c2.1.13 3.9.66 5.39 1.58 1.5.9 2.59 2.13 3.3 3.7.72 1.54 1.03 3.3.9 5.3a9.46 9.46 0 01-1.94 5.33 10.5 10.5 0 01-4.58 3.36c-1.89.73-4 1.03-6.3.88-3.81-.24-6.77-1.61-8.88-4.12-2.12-2.51-3.02-6.14-2.73-10.88.56-8.88 4.83-13.83 12.8-14.82l10.63-1.34.63 6.42-9.2 1.14c-2.35.28-4.1.87-5.25 1.75a6.15 6.15 0 00-2.17 3.96 10.22 10.22 0 017.4-2.26zm-2.84 14.4a4.04 4.04 0 003.28-1.1 4.7 4.7 0 001.4-3.2 4.3 4.3 0 00-.99-3.32 4.33 4.33 0 00-3.12-1.4 4.52 4.52 0 00-3.34 1 4.43 4.43 0 00-1.4 3.2 4.3 4.3 0 004.18 4.83zm28.63-7.97c2.85.2 4.95.98 6.3 2.32 1.37 1.34 1.97 3.17 1.83 5.49-.16 2.42-1.11 4.25-2.88 5.5-1.73 1.26-4.11 1.78-7.15 1.56l-11.41-.72 1.36-21.63 7.54.47-.42 6.7 4.83.31zm10.84-6.05l7.55.47-1.36 21.64-7.55-.47 1.36-21.64zm-13.17 15.68c1.92.12 2.93-.68 3.04-2.41.05-.85-.15-1.5-.6-1.92-.45-.43-1.16-.69-2.12-.78l-3.11-.2-.32 5.08 3.11.23zm43.6-7.71l-10.58-.67-.98 15.61-7.55-.47 1.37-21.64 18.12 1.14-.38 6.03zm16.98-5.34c1.97.12 3.73.7 5.26 1.73a9.7 9.7 0 013.59 4.15c.85 1.74 1.2 3.72 1.07 5.96a11.87 11.87 0 01-1.81 5.82 10.05 10.05 0 01-4.08 3.67c-1.66.8-3.47 1.14-5.44 1.02-2.52-.16-4.49-1.04-5.88-2.65l-.6 9.66-7.6-.48 1.86-29.38 7.22.45-.13 2.16c1.51-1.59 3.7-2.3 6.54-2.11zm-2.62 16.22a4.3 4.3 0 003.36-1.15 5.41 5.41 0 001.51-3.71c.1-1.6-.24-2.88-1.04-3.83a4.25 4.25 0 00-3.19-1.6 4.24 4.24 0 00-3.36 1.18 5.27 5.27 0 00-1.51 3.68c-.1 1.6.25 2.88 1.04 3.87a4.3 4.3 0 003.19 1.56zm25.24-14.8c3.6.23 6.28 1.22 8.07 3 1.78 1.73 2.57 4.3 2.36 7.68l-.76 12.01-7.06-.44.17-2.8c-1.22 2.04-3.42 2.95-6.59 2.75-1.67-.1-3.1-.49-4.3-1.15a6.65 6.65 0 01-2.64-2.53 6.5 6.5 0 01-.7-3.5 5.5 5.5 0 012.65-4.6c1.65-1.04 4.1-1.46 7.38-1.25l4.31.27c.01-2.3-1.45-3.54-4.37-3.72-1.04-.07-2.1.04-3.2.32a8.15 8.15 0 00-2.8 1.18l-2.22-5.3a13.86 13.86 0 014.47-1.57 20.5 20.5 0 015.23-.35zm-1.39 17.55a4.2 4.2 0 002.36-.5c.69-.38 1.2-.98 1.55-1.78l.12-1.88-3.27-.2c-2.21-.14-3.36.52-3.45 1.98-.04.67.17 1.22.65 1.65.49.43 1.16.67 2.04.73zm35.93-8.96l-6.95-.44-.98 15.6-7.55-.47.99-15.6-6.99-.45.38-6.02 21.48 1.35-.38 6.03zm15.59 1.66c2.87.2 5.03.98 6.47 2.33 1.43 1.35 2.08 3.18 1.94 5.5a6.84 6.84 0 01-3 5.5c-1.81 1.24-4.25 1.76-7.3 1.54l-11.75-.74 1.37-21.64 7.54.48-.42 6.7 5.15.33zm-2.33 9.63c1.92.12 2.93-.68 3.04-2.41.05-.85-.15-1.5-.6-1.92-.46-.43-1.16-.7-2.12-.78l-3.43-.21-.32 5.07 3.43.25zm46.1 8.12l.72-11.38-6.14 9.11-3.24-.2-4.78-9.96-.73 11.53-6.82-.43 1.36-21.63 7.98.5 5.32 11.68 7.34-10.88 7.14.45-1.32 21.63-6.83-.42zm34.54-8.65l-.23 1.87-15.73-1c.25 1.14.8 2.05 1.67 2.72.9.64 2.03 1 3.42 1.1a7.33 7.33 0 002.7-.28c.8-.24 1.6-.67 2.4-1.29l3.74 4.4c-2.25 2.21-5.4 3.2-9.45 2.94a14.75 14.75 0 01-6.57-1.86 10.9 10.9 0 01-4.22-4.27 10.93 10.93 0 01-1.2-5.89c.14-2.13.77-4 1.88-5.61a10.85 10.85 0 014.53-3.72c1.87-.85 3.93-1.2 6.2-1.06 2.15.14 4.08.71 5.78 1.73 1.7.99 3 2.37 3.9 4.13a11.17 11.17 0 011.18 6.09zm-11.16-6.56a4.47 4.47 0 00-3.02.82 4.56 4.56 0 00-1.65 2.62l8.86.56a4.32 4.32 0 00-4.2-4zm15.86-4.05l7.54.48-.5 8.02 7.78.5.5-8.03 7.6.48-1.37 21.63-7.58-.48.47-7.58-7.78-.49-.48 7.59-7.54-.48 1.36-21.64zm48.39 3.05l-1.37 21.64-6.74-.43.37-5.87-3.43-.21-4.2 5.63-8.03-.51 5.22-6.6a7.85 7.85 0 01-3.15-2.8 7.03 7.03 0 01-.86-4.07 7 7 0 013.25-5.8c2-1.32 4.69-1.88 8.04-1.67l10.9.69zm-11.12 5.31c-2.13-.13-3.24.61-3.35 2.24-.05.85.16 1.49.64 1.92.51.43 1.3.68 2.36.75l4.03.25.31-4.9-3.99-.26zm15.57-11.36l9.03.57-2.64 17.67-6.03-.38-.36-17.86zm2.73 28.59a4.6 4.6 0 01-3.2-1.4 4.02 4.02 0 01-1.08-3.08c.07-1.2.56-2.16 1.46-2.88a4.7 4.7 0 013.35-.95c1.33.09 2.38.54 3.16 1.36.8.83 1.16 1.84 1.09 3.04a4.02 4.02 0 01-1.47 2.91c-.9.75-2 1.08-3.3 1z"/></g><defs><linearGradient id="paint0_linear" x1="435" x2="600" y1="107.5" y2="650" gradientUnits="userSpaceOnUse"><stop stop-color="#7033BE"/><stop offset="1" stop-color="#501797"/></linearGradient><clipPath id="clip0"><path fill="#fff" d="M0 0h1200v650H0z"/></clipPath></defs></svg>
