<svg xmlns="http://www.w3.org/2000/svg" width="65" height="66" fill="none">
  <path fill="url(#paint0_linear)" d="M61.3 36.95A29.04 29.04 0 1132.29 7.9c16.03 0 29.03 13 29.03 29.05z"/>
  <path fill="url(#paint1_linear)" d="M12.28.4a11.62 11.62 0 00-9.93 18.26c7.69-3.8 13.04-7.4 18.61-13.88A11.58 11.58 0 0012.28.4z"/>
  <path fill="url(#paint2_linear)" d="M20.96 4.78a49.34 49.34 0 01-18.6 13.88C7.83 11.3 17.78 5.64 20.95 4.78z"/>
  <path fill="url(#paint3_linear)" d="M10.93 11.99a1.16 1.16 0 111.84-1.42l1.06 1.38L12 13.37l-1.06-1.38z"/>
  <path fill="url(#paint4_linear)" d="M11.83 14.96c-.4-.5-.3-1.23.2-1.63l1.85-1.42c.5-.39 1.23-.3 1.62.21l1.42 1.84-3.67 2.84-1.42-1.84z"/>
  <path fill="url(#paint5_linear)" d="M51.84.4a11.62 11.62 0 019.87 18.3c-7.67-3.84-13.01-7.45-18.56-13.96A11.58 11.58 0 0151.85.4z"/>
  <path fill="url(#paint6_linear)" d="M43.15 4.74A49.34 49.34 0 0061.71 18.7C56.25 11.31 46.3 5.61 43.15 4.74z"/>
  <path fill="url(#paint7_linear)" d="M53.16 11.99a1.16 1.16 0 10-1.84-1.42l-1.06 1.38 1.84 1.42 1.06-1.38z"/>
  <path fill="url(#paint8_linear)" d="M52.27 14.96c.39-.5.3-1.24-.21-1.63l-1.84-1.42c-.5-.39-1.24-.3-1.63.21l-1.42 1.84 3.68 2.84 1.42-1.84z"/>
  <path fill="url(#paint9_radial)" d="M53.76 36.95a21.49 21.49 0 11-42.98.02 21.49 21.49 0 0142.98-.02z"/>
  <path fill="#fff" fill-rule="evenodd" d="M32.28 57.87a20.9 20.9 0 10-.02-41.82 20.9 20.9 0 00.02 41.82zm0 2.32a23.23 23.23 0 10-.02-46.46 23.23 23.23 0 00.02 46.46z" clip-rule="evenodd"/>
  <path fill="url(#paint10_linear)" d="M35.18 37.67a2.9 2.9 0 11-5.8 0 2.9 2.9 0 015.8 0z"/>
  <g filter="url(#filter0_d)">
    <path fill="url(#paint11_linear)" d="M43.18 48.07c.23.23.23.6 0 .82a.58.58 0 01-.82 0L31.27 37.8l.82-.82 11.09 11.1z"/>
  </g>
  <g filter="url(#filter1_d)">
    <path fill="url(#paint12_linear)" d="M45.69 28.26a1.16 1.16 0 011.21 1.98l-13.88 8.48-1.2-1.98 13.87-8.48z"/>
  </g>
  <g filter="url(#filter2_d)">
    <path fill="url(#paint13_linear)" d="M21.14 30.31a.87.87 0 00-.88 1.5l11.28 6.6.88-1.51-11.28-6.59z"/>
  </g>
  <path fill="url(#paint14_linear)" d="M34.02 37.67a1.74 1.74 0 11-3.48 0 1.74 1.74 0 013.48 0z"/>
  <defs>
    <linearGradient id="paint0_linear" x1="32.28" x2="32.28" y1="7.9" y2="66" gradientUnits="userSpaceOnUse">
      <stop stop-color="#FCFBFE"/>
      <stop offset="1" stop-color="#D6D8EB"/>
    </linearGradient>
    <linearGradient id="paint1_linear" x1="17.51" x2=".6" y1=".59" y2="18.59" gradientUnits="userSpaceOnUse">
      <stop stop-color="#FFFFFD"/>
      <stop offset="1" stop-color="#CDD3F1"/>
    </linearGradient>
    <linearGradient id="paint2_linear" x1="21.43" x2="2.02" y1="4.79" y2="19.51" gradientUnits="userSpaceOnUse">
      <stop stop-color="#C2C8EC"/>
      <stop offset="1" stop-color="#D6D9F9"/>
    </linearGradient>
    <linearGradient id="paint3_linear" x1="11.14" x2="12.91" y1="10.36" y2="12.66" gradientUnits="userSpaceOnUse">
      <stop stop-color="#BAC2ED"/>
      <stop offset="1" stop-color="#A1ACE8"/>
    </linearGradient>
    <linearGradient id="paint4_linear" x1="12.25" x2="15.09" y1="11.97" y2="15.38" gradientUnits="userSpaceOnUse">
      <stop stop-color="#C2C5FD"/>
      <stop offset="1" stop-color="#F6F6FB"/>
    </linearGradient>
    <linearGradient id="paint5_linear" x1="46.62" x2="63.46" y1=".56" y2="18.63" gradientUnits="userSpaceOnUse">
      <stop stop-color="#FFFFFD"/>
      <stop offset="1" stop-color="#CDD3F1"/>
    </linearGradient>
    <linearGradient id="paint6_linear" x1="42.69" x2="62.03" y1="4.76" y2="19.54" gradientUnits="userSpaceOnUse">
      <stop stop-color="#C2C8EC"/>
      <stop offset="1" stop-color="#D6D9F9"/>
    </linearGradient>
    <linearGradient id="paint7_linear" x1="52.95" x2="51.18" y1="10.36" y2="12.65" gradientUnits="userSpaceOnUse">
      <stop stop-color="#BAC2ED"/>
      <stop offset="1" stop-color="#A1ACE8"/>
    </linearGradient>
    <linearGradient id="paint8_linear" x1="51.84" x2="49.01" y1="11.97" y2="15.38" gradientUnits="userSpaceOnUse">
      <stop stop-color="#C2C5FD"/>
      <stop offset="1" stop-color="#F6F6FB"/>
    </linearGradient>
    <linearGradient id="paint10_linear" x1="32.28" x2="32.28" y1="34.77" y2="40.58" gradientUnits="userSpaceOnUse">
      <stop stop-color="#E9E9F8"/>
      <stop offset="1" stop-color="#9FAAE0"/>
    </linearGradient>
    <linearGradient id="paint11_linear" x1="43.18" x2="31.68" y1="48.89" y2="37.4" gradientUnits="userSpaceOnUse">
      <stop stop-color="#FF737C"/>
      <stop offset="1" stop-color="#E44853"/>
    </linearGradient>
    <linearGradient id="paint12_linear" x1="47.29" x2="32.42" y1="28.65" y2="37.73" gradientUnits="userSpaceOnUse">
      <stop stop-color="#8989C0"/>
      <stop offset="1" stop-color="#5A599B"/>
    </linearGradient>
    <linearGradient id="paint13_linear" x1="19.95" x2="31.98" y1="30.62" y2="37.65" gradientUnits="userSpaceOnUse">
      <stop stop-color="#8989C0"/>
      <stop offset="1" stop-color="#5A599B"/>
    </linearGradient>
    <linearGradient id="paint14_linear" x1="32.28" x2="32.28" y1="35.93" y2="39.41" gradientUnits="userSpaceOnUse">
      <stop stop-color="#F7F8FB"/>
      <stop offset="1" stop-color="#8C98DC"/>
    </linearGradient>
    <filter id="filter0_d" width="22.08" height="22.08" x="26.27" y="35.98" color-interpolation-filters="sRGB" filterUnits="userSpaceOnUse">
      <feFlood flood-opacity="0" result="BackgroundImageFix"/>
      <feColorMatrix in="SourceAlpha" values="0 0 0 0 0 0 0 0 0 0 0 0 0 0 0 0 0 0 127 0"/>
      <feOffset dy="4"/>
      <feGaussianBlur stdDeviation="2.5"/>
      <feColorMatrix values="0 0 0 0 0.666667 0 0 0 0 0.0972222 0 0 0 0 0.135698 0 0 0 0.4 0"/>
      <feBlend in2="BackgroundImageFix" result="effect1_dropShadow"/>
      <feBlend in="SourceGraphic" in2="effect1_dropShadow" result="shape"/>
    </filter>
    <filter id="filter1_d" width="26.08" height="21.06" x="26.81" y="26.66" color-interpolation-filters="sRGB" filterUnits="userSpaceOnUse">
      <feFlood flood-opacity="0" result="BackgroundImageFix"/>
      <feColorMatrix in="SourceAlpha" values="0 0 0 0 0 0 0 0 0 0 0 0 0 0 0 0 0 0 127 0"/>
      <feOffset dy="4"/>
      <feGaussianBlur stdDeviation="2.5"/>
      <feColorMatrix values="0 0 0 0 0.350593 0 0 0 0 0.346419 0 0 0 0 0.605208 0 0 0 0.4 0"/>
      <feBlend in2="BackgroundImageFix" result="effect1_dropShadow"/>
      <feBlend in="SourceGraphic" in2="effect1_dropShadow" result="shape"/>
    </filter>
    <filter id="filter2_d" width="22.59" height="18.21" x="14.83" y="29.19" color-interpolation-filters="sRGB" filterUnits="userSpaceOnUse">
      <feFlood flood-opacity="0" result="BackgroundImageFix"/>
      <feColorMatrix in="SourceAlpha" values="0 0 0 0 0 0 0 0 0 0 0 0 0 0 0 0 0 0 127 0"/>
      <feOffset dy="4"/>
      <feGaussianBlur stdDeviation="2.5"/>
      <feColorMatrix values="0 0 0 0 0.333803 0 0 0 0 0.329514 0 0 0 0 0.608333 0 0 0 0.4 0"/>
      <feBlend in2="BackgroundImageFix" result="effect1_dropShadow"/>
      <feBlend in="SourceGraphic" in2="effect1_dropShadow" result="shape"/>
    </filter>
    <radialGradient id="paint9_radial" cx="0" cy="0" r="1" gradientTransform="rotate(-63.14 55.6 8.72) scale(47.5401 47.5213)" gradientUnits="userSpaceOnUse">
      <stop stop-color="#fff"/>
      <stop offset=".69" stop-color="#fff" stop-opacity=".6"/>
      <stop offset="1" stop-color="#CBD1F3"/>
    </radialGradient>
  </defs>
</svg>
