<svg xmlns="http://www.w3.org/2000/svg" fill="none" viewBox="0 0 375 330">
  <path fill="#476FE6" d="M89 130c-66-8-31-64-89-43v196c10 10 35 6 57-15 16-15 42-16 60-1 32 27 99-7 21-57-37-24 31-70-49-80z" opacity=".7"/>
  <path fill="#4878FF" d="M183 85c-17 14-59 23-84 25S11 65 61 43c27-11 37-10 43 10 4 16 48-4 56-26 20-53 81-4 42 14-27 13 2 26-19 44z" opacity=".9" />
  <path fill="#7D9FFF" d="M194 174C295 55 311 184 375 7v218c-73-34-113 38-166 21-50-16-111 9-120 30-13 33-67 38-89 40v-91c63-94 157-8 194-51z" opacity=".3"/>
  <path fill="#449AFF" d="M375 330C150 225 485 198 183 96 89 64 251-41 300 80c11 28 64 33 75 24v226z" opacity=".5"/>
</svg>
