<svg xmlns="http://www.w3.org/2000/svg" fill="none" width="28" height="28">
  <path fill="#fff" fill-rule="evenodd" d="M8.8 4c0-.6-.4-1-1-1-1.3 0-2 .1-2.7.5-.7.4-1.2.9-1.6 1.6-.4.7-.5 1.4-.5 2.7a1 1 0 002 0c0-1 0-1.4.3-1.8l.7-.7c.3-.2.7-.3 1.4-.3h.4c.6 0 1-.4 1-1zM4 19.2c.6 0 1 .4 1 1v.4c0 .7.1 1 .3 1.4l.7.7c.4.2.8.3 1.8.3a1 1 0 110 2c-1.3 0-2-.1-2.7-.5-.7-.4-1.2-.9-1.6-1.6-.4-.7-.5-1.4-.5-2.7 0-.6.4-1 1-1zm20 0c.6 0 1 .4 1 1 0 1.3-.1 2-.5 2.7-.4.7-.9 1.2-1.6 1.6-.7.4-1.4.5-2.7.5a1 1 0 110-2h.4c.7 0 1-.1 1.4-.3l.7-.7c.2-.4.3-.8.3-1.8 0-.6.4-1 1-1zM20.2 3c1.3 0 2 .1 2.7.5.7.4 1.2.9 1.6 1.6.4.7.5 1.4.5 2.7a1 1 0 11-2 0v-.4c0-.7-.1-1-.3-1.4l-.7-.7c-.4-.2-.8-.3-1.8-.3a1 1 0 110-2zm-2.8 4h-6.8c-1 0-1.5.1-2 .4-.5.3-1 .7-1.2 1.2-.3.5-.4 1-.4 2v.4H5a1 1 0 100 2h18a1 1 0 100-2h-2v-.4c0-1-.1-1.5-.4-2-.3-.5-.7-1-1.2-1.2-.5-.3-1-.4-2-.4zm1.6 4H9v-.4l.1-1.1.4-.4.9-.1h7l1.1.1.4.4.1.9v.6zm0 5v1.4l-.1 1.1-.4.4-.9.1h-7l-1.1-.1a.8.8 0 01-.4-.4l-.1-.9V16a1 1 0 10-2 0v1.4c0 1 .1 1.5.4 2 .3.5.7 1 1.2 1.2.5.3 1 .4 2 .4h6.8c1 0 1.5-.1 2-.4.5-.3 1-.7 1.2-1.2.3-.5.4-1 .4-2V16a1 1 0 10-2 0z" clip-rule="evenodd"/>
</svg>
