<svg width="28" height="28" viewBox="0 0 28 28" fill="none" xmlns="http://www.w3.org/2000/svg">
<path fill-rule="evenodd" clip-rule="evenodd" d="M8.84583 4C8.84583 3.44772 8.39811 3 7.84583 3C6.47564 3 5.78342 3.13367 5.06313 3.51889C4.39998 3.87355 3.87355 4.39998 3.51889 5.06313C3.13367 5.78342 3 6.47564 3 7.84583C3 8.39811 3.44772 8.84583 4 8.84583C4.55228 8.84583 5 8.39811 5 7.84583C5 6.77757 5.07344 6.39726 5.28251 6.00633C5.45077 5.69171 5.69171 5.45077 6.00633 5.28251C6.34141 5.10331 6.66869 5.02375 7.42808 5.00468L7.84583 5C8.39811 5 8.84583 4.55228 8.84583 4ZM4 19.1542C4.55228 19.1542 5 19.6019 5 20.1542L5.00468 20.5719C5.02375 21.3313 5.10331 21.6586 5.28251 21.9937C5.45077 22.3083 5.69171 22.5492 6.00633 22.7175C6.39726 22.9266 6.77757 23 7.84583 23C8.39811 23 8.84583 23.4477 8.84583 24C8.84583 24.5523 8.39811 25 7.84583 25C6.47564 25 5.78342 24.8663 5.06313 24.4811C4.39998 24.1265 3.87355 23.6 3.51889 22.9369C3.13367 22.2166 3 21.5244 3 20.1542C3 19.6019 3.44772 19.1542 4 19.1542ZM24 19.1542C24.5523 19.1542 25 19.6019 25 20.1542C25 21.5244 24.8663 22.2166 24.4811 22.9369C24.1265 23.6 23.6 24.1265 22.9369 24.4811C22.2166 24.8663 21.5244 25 20.1542 25C19.6019 25 19.1542 24.5523 19.1542 24C19.1542 23.4477 19.6019 23 20.1542 23L20.5719 22.9953C21.3313 22.9762 21.6586 22.8967 21.9937 22.7175C22.3083 22.5492 22.5492 22.3083 22.7175 21.9937C22.9266 21.6027 23 21.2224 23 20.1542C23 19.6019 23.4477 19.1542 24 19.1542ZM20.1542 3C21.5244 3 22.2166 3.13367 22.9369 3.51889C23.6 3.87355 24.1265 4.39998 24.4811 5.06313C24.8663 5.78342 25 6.47564 25 7.84583C25 8.39811 24.5523 8.84583 24 8.84583C23.4477 8.84583 23 8.39811 23 7.84583L22.9953 7.42808C22.9762 6.66869 22.8967 6.34141 22.7175 6.00633C22.5492 5.69171 22.3083 5.45077 21.9937 5.28251C21.6027 5.07344 21.2224 5 20.1542 5C19.6019 5 19.1542 4.55228 19.1542 4C19.1542 3.44772 19.6019 3 20.1542 3ZM17.4361 7H10.5639C9.6001 7 9.08664 7.09916 8.55156 7.38532C8.05136 7.65283 7.65283 8.05136 7.38532 8.55156C7.09916 9.08664 7 9.6001 7 10.5639V11H5C4.44772 11 4 11.4477 4 12C4 12.5523 4.44772 13 5 13H7H9.00034H18.9994H21H23C23.5523 13 24 12.5523 24 12C24 11.4477 23.5523 11 23 11H21V10.5639C21 9.6001 20.9008 9.08664 20.6147 8.55156C20.3472 8.05136 19.9486 7.65283 19.4484 7.38532C18.9134 7.09916 18.3999 7 17.4361 7ZM18.9991 11H9.00006L9 10.5639C9 9.90203 9.03892 9.70048 9.14895 9.49475C9.23005 9.3431 9.3431 9.23005 9.49475 9.14895C9.68178 9.04892 9.86535 9.00766 10.3944 9.00099L17.4361 9C18.098 9 18.2995 9.03892 18.5052 9.14895C18.6569 9.23005 18.7699 9.3431 18.8511 9.49475C18.9511 9.68178 18.9923 9.86535 18.999 10.3944L18.9991 11ZM19 16H18.9998L19 17.4361C19 18.098 18.9611 18.2995 18.8511 18.5052C18.7699 18.6569 18.6569 18.7699 18.5052 18.8511C18.3182 18.9511 18.1346 18.9923 17.6056 18.999L10.5639 19C9.90203 19 9.70048 18.9611 9.49475 18.8511C9.3431 18.7699 9.23005 18.6569 9.14895 18.5052C9.04892 18.3182 9.00766 18.1346 9.00099 17.6056L9.00076 16H9C9 15.4477 8.55228 15 8 15C7.44772 15 7 15.4477 7 16V17.4361C7 18.3999 7.09916 18.9134 7.38532 19.4484C7.65283 19.9486 8.05136 20.3472 8.55156 20.6147C9.08664 20.9008 9.6001 21 10.5639 21H17.4361C18.3999 21 18.9134 20.9008 19.4484 20.6147C19.9486 20.3472 20.3472 19.9486 20.6147 19.4484C20.9008 18.9134 21 18.3999 21 17.4361V16C21 15.4477 20.5523 15 20 15C19.4477 15 19 15.4477 19 16Z" fill="white"/>
</svg>
